<?xml version="1.0" encoding="UTF-8"?>
<svg version="1.1" xmlns="http://www.w3.org/2000/svg" width="600" height="226">
<path d="M0 0 C9.32765484 6.11704901 15.71599571 15.68130066 18.0703125 26.5 C19.18649191 32.23510604 19.22608777 37.80078907 19.125 43.625 C19.11597656 44.62917969 19.10695312 45.63335937 19.09765625 46.66796875 C19.07437746 49.11224126 19.04168487 51.55598408 19 54 C19.7623999 54.10183594 20.5247998 54.20367187 21.31030273 54.30859375 C28.46906672 55.31707171 34.57585246 56.93564358 39.37890625 62.63671875 C42.05252931 66.78223186 42.67663108 70.17900356 42 75 C39.4139176 83.3405439 32.99674931 89.53716401 25.72265625 94.01953125 C14.3958694 99.96452987 3.5685555 102.54572661 -9.25 102.375 C-10.33249023 102.36774902 -11.41498047 102.36049805 -12.53027344 102.35302734 C-23.15239924 102.17130398 -33.07510592 100.96995763 -43 97 C-42.01 101.29 -41.02 105.58 -40 110 C-15.26442962 117.25576731 9.84422859 117.92751291 33.01171875 105.3671875 C40.93116442 100.65146952 45.49357109 96.08718499 48 87 C48.23964886 83.56932474 48.23964886 83.56932474 48.125 80.125 C48.10695312 78.97257812 48.08890625 77.82015625 48.0703125 76.6328125 C48.04710937 75.76398438 48.02390625 74.89515625 48 74 C49.9375 74.3125 49.9375 74.3125 52 75 C54.42954257 82.2886277 53.47211936 89.7616785 50.30078125 96.66015625 C43.78056864 108.38870686 30.51341242 115.1277714 18 119 C14.68375899 119.79480156 11.36606514 120.45570011 8 121 C8.33 122.010625 8.66 123.02125 9 124.0625 C10.95784622 131.09102708 10.1767339 137.46934385 7 144 C3.4884964 147.60391159 -0.43689967 149.80836633 -5.5078125 150.1875 C-16.9043057 149.37103482 -24.93881521 144.02722453 -32.65234375 135.8125 C-46.62053779 119.07855706 -50.82052883 99.26151975 -52 78 C-57.52143925 79.59164531 -57.52143925 79.59164531 -62 83 C-65.4011463 100.20579892 -57.44390489 122.31983913 -48.6875 136.8125 C-41.84052863 146.93214271 -34.16051222 155.82280259 -22 159 C-18.702898 159.22922743 -15.4279235 159.18966567 -12.125 159.125 C-11.24585937 159.11597656 -10.36671875 159.10695312 -9.4609375 159.09765625 C-7.3071729 159.07424577 -5.15354986 159.0383801 -3 159 C-4.703125 162.84375 -4.703125 162.84375 -7.375 164.25 C-18.19976341 166.48960622 -26.74764142 164.98689359 -36.0078125 159.08203125 C-45.2688614 152.52502294 -52.81691212 144.16682624 -58 134 C-58 133.34 -58 132.68 -58 132 C-58.54269531 132.34933594 -59.08539063 132.69867188 -59.64453125 133.05859375 C-60.35996094 133.51363281 -61.07539062 133.96867188 -61.8125 134.4375 C-62.52019531 134.88996094 -63.22789063 135.34242188 -63.95703125 135.80859375 C-69.23076179 138.88409626 -75.07834342 138.57180017 -81 138 C-85.03654111 136.0171377 -87.6500056 133.83420139 -90 130 C-92.79269921 121.62190237 -91.65001604 111.49150125 -88.25390625 103.48046875 C-77.30144838 81.81439165 -58.27528212 71.47124641 -37 62 C-38.92204353 57.79108061 -40.67024592 55.93292593 -45 54 C-62.67731272 55.42978265 -81.00844227 71.48280018 -92 84 C-99.44053747 93.76397669 -104.83239565 105.51406525 -104 118 C-102.58315877 123.87572394 -100.16015208 128.87837422 -97 134 C-100.38405002 133.71799583 -101.72125596 133.28694239 -104.125 130.8125 C-109.62501745 122.56247382 -111.19923693 114.32970027 -109.33984375 104.515625 C-106.27135539 93.93120362 -101.12967218 85.83020653 -94.30224609 77.33984375 C-91.7935493 74.52111008 -91.7935493 74.52111008 -91 71 C-92.46293331 69.80305457 -93.92736743 68.60785447 -95.40234375 67.42578125 C-100.1677446 63.17303966 -101.73819282 58.77515607 -102.3125 52.6875 C-101.93427855 48.22448694 -100.7957223 45.46876655 -98 42 C-88.90943945 34.68802739 -78.10251741 34.9439014 -67 36 C-54.2269803 38.1520567 -40.11839682 45.75194028 -31.46875 55.39453125 C-29.92506171 57.08191393 -28.28402136 58.44700045 -26.5 59.875 C-22.31918192 63.36375523 -19.19942443 67.62388756 -16 72 C-13.1273648 68.50731513 -12.03261038 65.90940328 -11.6953125 61.421875 C-12.79060749 52.71568409 -23.64292328 45.1243356 -30 40 C-44.70440508 29.1528437 -62.42258552 19.87997541 -81.19921875 22.28125 C-86.342963 23.18948328 -90.09895939 24.99038374 -94.37109375 27.9765625 C-96 29 -96 29 -98 29 C-98.433125 30.1446875 -98.433125 30.1446875 -98.875 31.3125 C-100 34 -100 34 -102 37 C-102.99 37 -103.98 37 -105 37 C-105.32994765 31.99000543 -104.03343487 29.81972181 -100.96875 25.99609375 C-93.52066868 18.44456686 -84.60113057 15.97171631 -74.3125 15.6875 C-62.633117 15.8869345 -52.55288824 19.1894041 -42 24 C-41.835 23.030625 -41.67 22.06125 -41.5 21.0625 C-39.97711706 15.69406373 -36.10816429 11.63443003 -32 8 C-27.3387507 5.67670436 -23.12029558 5.30095255 -18 6 C-9.65078069 9.7653342 -5.86732724 18.60080078 -2.76171875 26.73828125 C3.81120858 46.25481931 -3.95321745 65.98026005 -12.5625 83.3828125 C-14.47607586 87.12064383 -16.57420283 90.57468455 -19 94 C-17.27152533 95.72847467 -15.0426665 95.29389493 -12.6875 95.375 C-8.32026124 95.38101433 -8.32026124 95.38101433 -4.6875 93.1875 C-4.130625 92.135625 -3.57375 91.08375 -3 90 C-2.54367188 89.22140625 -2.08734375 88.4428125 -1.6171875 87.640625 C4.77179794 76.53213776 8.74053395 65.61026321 11 53 C11.2784375 51.51113281 11.2784375 51.51113281 11.5625 49.9921875 C13.41963544 37.29070765 12.30279709 22.9086847 5.3671875 11.828125 C0.81813454 5.74539132 -5.0750821 3.44972392 -12 1 C-12 0.34 -12 -0.32 -12 -1 C-7.60948071 -2.46350643 -4.27996912 -1.62583243 0 0 Z M-28 29 C-28.33 29.99 -28.66 30.98 -29 32 C-28.57178955 32.39268066 -28.1435791 32.78536133 -27.70239258 33.18994141 C-25.73548468 34.99774359 -23.77398229 36.81131312 -21.8125 38.625 C-21.13896484 39.24246094 -20.46542969 39.85992187 -19.77148438 40.49609375 C-16.68467807 43.35703618 -13.73939859 46.19827402 -11.07421875 49.4609375 C-10.38972656 50.29882812 -9.70523438 51.13671875 -9 52 C-8.67 52 -8.34 52 -8 52 C-6.76206945 42.35010762 -6.33757429 34.98496832 -12.25 26.9375 C-18.08860664 22.82393623 -22.84745303 24.70621086 -28 29 Z M-81 47 C-82.58873246 50.17746491 -82.41026221 53.54012202 -82 57 C-80.66169042 59.4595774 -80.66169042 59.4595774 -79 61 C-74.83607092 60.08809099 -71.39032446 58.17274633 -67.6875 56.125 C-62.87643906 53.47430447 -58.08266813 51.09092945 -53 49 C-56.89211404 44.64424855 -61.92582762 43.38773345 -67.6015625 42.671875 C-73.38312436 42.42733764 -76.61878594 43.18048005 -81 47 Z M-38.1875 69.4375 C-39.25355469 69.88996094 -40.31960937 70.34242187 -41.41796875 70.80859375 C-43.87889042 71.76362529 -43.87889042 71.76362529 -45 73 C-45.20696667 75.64326005 -45.32436753 78.2283029 -45.375 80.875 C-45.41238281 81.60847656 -45.44976562 82.34195313 -45.48828125 83.09765625 C-45.58311945 85.52039974 -45.58311945 85.52039974 -45 89 C-40.77230884 92.5409596 -35.45633424 93.69377265 -30.0546875 94.3671875 C-26.84828816 94.28153567 -26.84828816 94.28153567 -24.62890625 91.83984375 C-20.44054495 86.08729691 -20.44054495 86.08729691 -18.5 79.375 C-20.68161828 74.46635888 -23.83183964 70.41031302 -28 67 C-32.21186918 67 -34.36540418 67.79413846 -38.1875 69.4375 Z M14 70 C13.55269531 71.05058594 13.10539062 72.10117188 12.64453125 73.18359375 C9.43266808 80.66339708 6.21145869 88.01324825 2 95 C10.49726865 94.58884184 17.73815765 92.572494 23.625 86.125 C25.28897497 82.34323871 25.66873904 80.08673859 25 76 C22.47197045 72.57972473 21.01924007 71.2028463 16.8203125 70.3671875 C15.88960937 70.24601562 14.95890625 70.12484375 14 70 Z M-71 90 C-72.29623379 91.57959653 -73.58681327 93.16383413 -74.875 94.75 C-75.59429687 95.63171875 -76.31359375 96.5134375 -77.0546875 97.421875 C-80.67260834 102.21670985 -81.53115403 105.60045888 -81.36328125 111.58203125 C-81.11942318 114.2512059 -81.11942318 114.2512059 -79.125 117.125 C-74.73773073 119.75736156 -70.99183607 119.43617985 -66 119 C-64.64704274 115.26583796 -65.38231678 112.65448199 -66.375 108.875 C-67.62558025 103.8557028 -68.41267552 99.08652294 -68.69140625 93.92578125 C-68.844737 91.76438461 -68.844737 91.76438461 -71 90 Z M-36 119 C-32.20800361 126.02838891 -28.34696746 132.32651627 -21 136 C-15.11519508 136.42894058 -15.11519508 136.42894058 -10 134 C-7.6501558 130.22346468 -6.60740448 127.44941586 -7 123 C-10.28104654 121.35947673 -13.95154983 121.37184362 -17.5625 121 C-19.12630208 120.83333333 -20.69010417 120.66666667 -22.25390625 120.5 C-23.02879395 120.41878906 -23.80368164 120.33757812 -24.60205078 120.25390625 C-28.40311066 119.85143198 -32.20140111 119.42501806 -36 119 Z " fill="#0E0E0E" transform="translate(135,34)"/>
<path d="M0 0 C1.13501953 -0.10828125 1.13501953 -0.10828125 2.29296875 -0.21875 C9.61996984 1.87143326 14.69225219 13.11632317 18.625 19.125 C20.03674355 21.26629576 21.44949717 23.40692594 22.86328125 25.546875 C23.87769287 27.08311523 23.87769287 27.08311523 24.91259766 28.65039062 C27.98912353 33.26478409 31.18182301 37.79289601 34.40625 42.3046875 C35.8125 44.5 35.8125 44.5 35.8125 46.5 C36.4725 46.5 37.1325 46.5 37.8125 46.5 C37.77697021 45.6342334 37.74144043 44.7684668 37.70483398 43.87646484 C37.57382188 40.5926322 37.44986584 37.30867695 37.33032227 34.02441406 C37.27770685 32.61643206 37.22246638 31.20854513 37.16430664 29.80078125 C36.77531192 20.32960536 36.60178826 10.930901 37.8125 1.5 C38.8125 0.5 38.8125 0.5 41.875 0.4375 C43.3290625 0.4684375 43.3290625 0.4684375 44.8125 0.5 C47.14267865 6.95832038 47.10242662 13.07371971 47.078125 19.890625 C47.08099518 21.66297516 47.08099518 21.66297516 47.08392334 23.47113037 C47.08528022 25.95894586 47.08161862 28.44676855 47.07324219 30.93457031 C47.06249772 34.75081133 47.0731742 38.56658568 47.0859375 42.3828125 C47.08461657 44.80208437 47.08205554 47.22135596 47.078125 49.640625 C47.08217346 50.78436584 47.08622192 51.92810669 47.09039307 53.10650635 C47.08408875 54.16480652 47.07778442 55.22310669 47.07128906 56.31347656 C47.06969788 57.24500549 47.06810669 58.17653442 47.06646729 59.1362915 C46.8125 61.5 46.8125 61.5 44.8125 64.5 C42.125 65.1875 42.125 65.1875 38.8125 64.5 C34.48725731 60.92869869 31.5154189 56.1380056 28.57421875 51.421875 C24.8656747 45.5447297 20.98934242 39.79537516 17.0625 34.0625 C16.40378906 33.09634766 15.74507812 32.13019531 15.06640625 31.13476562 C11.69276167 26.15139857 11.69276167 26.15139857 8.10449219 21.32397461 C6.8125 19.5 6.8125 19.5 6.8125 17.5 C6.1525 17.5 5.4925 17.5 4.8125 17.5 C4.80219254 18.0593222 4.79188507 18.61864441 4.78126526 19.19491577 C4.6733119 25.0021358 4.55870502 30.80919714 4.44018555 36.61621094 C4.39680081 38.78512256 4.35512839 40.95406913 4.31518555 43.12304688 C4.25756861 46.23578435 4.19384962 49.34834535 4.12890625 52.4609375 C4.10383751 53.92193375 4.10383751 53.92193375 4.07826233 55.41244507 C4.05831711 56.31322784 4.03837189 57.21401062 4.01782227 58.14208984 C4.00227798 58.93706879 3.9867337 59.73204773 3.97071838 60.55111694 C3.8125 62.5 3.8125 62.5 2.8125 64.5 C-0.0625 64.625 -0.0625 64.625 -3.1875 64.5 C-5.1875 62.5 -5.1875 62.5 -5.43473816 59.95042419 C-5.43331314 58.87422318 -5.43188812 57.79802216 -5.43041992 56.68920898 C-5.43349655 55.47132187 -5.43657318 54.25343475 -5.43974304 52.99864197 C-5.43284583 51.66445731 -5.4255789 50.33027453 -5.41796875 48.99609375 C-5.41677702 47.63371321 -5.41632377 46.27133184 -5.4165802 44.90895081 C-5.41501523 42.05326192 -5.4067238 39.19769838 -5.39331055 36.34204102 C-5.37630453 32.67424113 -5.37249665 29.00657886 -5.37325573 25.33874416 C-5.37298436 22.52585018 -5.36750881 19.71298653 -5.36025429 16.90010262 C-5.35706351 15.54725436 -5.35509926 14.19440265 -5.35436058 12.84155083 C-5.35220227 10.95482021 -5.34267275 9.06810231 -5.33276367 7.18139648 C-5.32895187 6.10599106 -5.32514008 5.03058563 -5.32121277 3.92259216 C-5.10382902 -0.01594095 -3.60560876 0.24158183 0 0 Z " fill="#0C0C0C" transform="translate(221.1875,78.5)"/>
<path d="M0 0 C2.05078125 0.03255208 4.1015625 0.06510417 6.15234375 0.09765625 C11.01830826 9.58336893 15.4709338 19.16690024 19.65234375 28.97265625 C20.77878892 31.60336202 21.90695329 34.23332895 23.03515625 36.86328125 C23.3059903 37.49589874 23.57682434 38.12851624 23.85586548 38.78030396 C25.39123999 42.35830062 26.96161134 45.91678108 28.58203125 49.45703125 C28.91912109 50.19840332 29.25621094 50.93977539 29.60351562 51.70361328 C30.45292104 53.56000407 31.31380741 55.41113035 32.17578125 57.26171875 C33.17047153 60.15029932 33.30487273 61.31802754 32.15234375 64.09765625 C28.96484375 64.59765625 28.96484375 64.59765625 25.15234375 64.09765625 C20.54424519 59.51460171 18.16744366 52.15421351 16.15234375 46.09765625 C16.15234375 45.43765625 16.15234375 44.77765625 16.15234375 44.09765625 C6.91234375 44.09765625 -2.32765625 44.09765625 -11.84765625 44.09765625 C-12.34265625 46.57265625 -12.34265625 46.57265625 -12.84765625 49.09765625 C-13.96421478 51.56065301 -15.1087381 53.94942916 -16.34765625 56.34765625 C-16.66863281 56.98445313 -16.98960937 57.62125 -17.3203125 58.27734375 C-19.69269142 62.94269142 -19.69269142 62.94269142 -20.84765625 64.09765625 C-23.18063058 64.13858562 -25.5147085 64.14007348 -27.84765625 64.09765625 C-27.45560718 56.54843233 -24.69766338 50.6441124 -21.53515625 43.84765625 C-20.44729171 41.46048542 -19.36135227 39.07251072 -18.27734375 36.68359375 C-17.99762222 36.07001007 -17.7179007 35.45642639 -17.42970276 34.82424927 C-13.93721141 27.14237365 -10.65507392 19.37024088 -7.36752319 11.59899902 C-6.62966324 9.85558605 -5.88911726 8.11331061 -5.1484375 6.37109375 C-4.51675659 4.87715088 -4.51675659 4.87715088 -3.87231445 3.35302734 C-2.40676276 0.12720733 -2.40676276 0.12720733 0 0 Z M2.15234375 14.09765625 C0.99627105 16.30113685 -0.14750346 18.50968781 -1.28515625 20.72265625 C-1.61064453 21.34011719 -1.93613281 21.95757812 -2.27148438 22.59375 C-4.22416094 26.41858039 -5.49313378 29.8047114 -5.84765625 34.09765625 C-3.91423678 36.03107572 -0.47286504 35.27214758 2.08984375 35.28515625 C3.99056641 35.30642578 3.99056641 35.30642578 5.9296875 35.328125 C9.24178374 35.44479322 9.24178374 35.44479322 11.15234375 33.09765625 C10.22234718 30.67785934 9.2837265 28.26203246 8.33984375 25.84765625 C8.07880859 25.16574219 7.81777344 24.48382813 7.54882812 23.78125 C6.12242495 20.15360736 4.72324504 17.09318088 2.15234375 14.09765625 Z " fill="#0E0E0F" transform="translate(512.84765625,78.90234375)"/>
<path d="M0 0 C3.0625 -0.5625 3.0625 -0.5625 7 0 C9.87458862 2.61033272 11.8747243 5.76921995 14 9 C14.72058594 10.06734375 15.44117188 11.1346875 16.18359375 12.234375 C17.60066153 14.34608385 19.00643398 16.46543574 20.3984375 18.59375 C21.7899473 20.85556435 21.7899473 20.85556435 23 22 C23.99580078 20.37191406 23.99580078 20.37191406 25.01171875 18.7109375 C25.90340087 17.26547386 26.79534175 15.82016982 27.6875 14.375 C28.12255859 13.66214844 28.55761719 12.94929688 29.00585938 12.21484375 C36.29344527 0.44674207 36.29344527 0.44674207 40.23828125 -0.5859375 C40.92277344 -0.51632813 41.60726562 -0.44671875 42.3125 -0.375 C43.529375 -0.25125 44.74625 -0.1275 46 0 C46 3.89134436 45.95976422 4.56320201 44.0234375 7.57421875 C43.60247803 8.23784424 43.18151855 8.90146973 42.74780273 9.58520508 C42.06826538 10.62584106 42.06826538 10.62584106 41.375 11.6875 C40.9200415 12.39994873 40.46508301 13.11239746 39.99633789 13.84643555 C37.09060637 18.38016079 34.12753017 22.87560097 31.05859375 27.30078125 C29.82682754 29.13079584 29.82682754 29.13079584 29 32 C30.15637768 34.40054314 30.15637768 34.40054314 31.9375 36.9375 C32.58203125 37.90945312 33.2265625 38.88140625 33.890625 39.8828125 C34.58671875 40.91148438 35.2828125 41.94015625 36 43 C37.39586888 45.10414309 38.79170274 47.2083094 40.1875 49.3125 C42.18794138 52.2989023 44.18816356 55.25908429 46.30078125 58.16796875 C46.86152344 59.10253906 47.42226563 60.03710938 48 61 C47.67 61.99 47.34 62.98 47 64 C43.8125 64.3125 43.8125 64.3125 40 64 C35.52167116 60.28132307 32.79895288 55.75281794 29.875 50.8125 C29.02422615 49.37793689 28.16767524 47.94678021 27.3046875 46.51953125 C26.7475708 45.57750854 26.7475708 45.57750854 26.17919922 44.61645508 C24.92331614 42.69950378 24.92331614 42.69950378 22 41 C21.62713867 41.55461914 21.25427734 42.10923828 20.87011719 42.68066406 C19.16799758 45.20690117 17.45907971 47.72846698 15.75 50.25 C15.16347656 51.12269531 14.57695312 51.99539062 13.97265625 52.89453125 C13.39902344 53.73886719 12.82539063 54.58320313 12.234375 55.453125 C11.71069336 56.22817383 11.18701172 57.00322266 10.64746094 57.80175781 C8.90421347 60.12781 7.21510964 62.11273936 5 64 C1.25 64.25 1.25 64.25 -2 64 C-2.495 62.515 -2.495 62.515 -3 61 C-1.60277919 58.5918311 -0.16782964 56.38797579 1.4375 54.125 C2.36075269 52.77568122 3.28260385 51.4254025 4.203125 50.07421875 C4.67041016 49.39407715 5.13769531 48.71393555 5.61914062 48.01318359 C7.67871953 45.01048068 9.71022229 41.99505309 11.6875 38.9375 C12.35136719 37.93589844 13.01523437 36.93429688 13.69921875 35.90234375 C15.33519559 32.25210112 15.23198336 30.79182428 14 27 C12.59084721 24.41179704 10.95144188 22.02842041 9.25 19.625 C8.34204053 18.29845583 7.43448447 16.97163544 6.52734375 15.64453125 C5.68581114 14.42905328 4.84345164 13.21414709 4 12 C-1.10841422 4.61872762 -1.10841422 4.61872762 -0.61328125 1.79296875 C-0.41089844 1.20128906 -0.20851563 0.60960938 0 0 Z " fill="#111111" transform="translate(343,79)"/>
<path d="M0 0 C1.08946678 -0.0049926 1.08946678 -0.0049926 2.20094299 -0.01008606 C3.74015671 -0.015158 5.27938145 -0.0174943 6.81860352 -0.01733398 C9.17808096 -0.01951891 11.53708986 -0.0376669 13.89648438 -0.05664062 C15.38932131 -0.05957477 16.88216048 -0.06155942 18.375 -0.0625 C19.43756264 -0.07327827 19.43756264 -0.07327827 20.52159119 -0.08427429 C25.52508288 -0.06085462 25.52508288 -0.06085462 27.75390625 2.16796875 C27.94140625 4.73046875 27.94140625 4.73046875 27.75390625 7.16796875 C24.63134669 10.29052831 15.27488337 9.16406839 11.1015625 9.1953125 C8.8253919 9.17770676 6.54926631 9.1486636 4.2734375 9.10546875 C1.81529742 8.87679288 1.81529742 8.87679288 0.75390625 10.16796875 C0.66758751 11.51064288 0.64684152 12.85771197 0.65625 14.203125 C0.65947266 15.01201172 0.66269531 15.82089844 0.66601562 16.65429688 C0.67439453 17.50443359 0.68277344 18.35457031 0.69140625 19.23046875 C0.69591797 20.08447266 0.70042969 20.93847656 0.70507812 21.81835938 C0.71690252 23.93492538 0.73483856 26.0514556 0.75390625 28.16796875 C1.50599365 28.16273193 2.25808105 28.15749512 3.03295898 28.15209961 C6.41909967 28.13139648 9.80522709 28.11832998 13.19140625 28.10546875 C14.37541016 28.09708984 15.55941406 28.08871094 16.77929688 28.08007812 C17.90400391 28.07685547 19.02871094 28.07363281 20.1875 28.0703125 C21.22962646 28.06507568 22.27175293 28.05983887 23.34545898 28.05444336 C25.75390625 28.16796875 25.75390625 28.16796875 26.75390625 29.16796875 C26.87890625 32.16796875 26.87890625 32.16796875 26.75390625 35.16796875 C25.75390625 36.16796875 25.75390625 36.16796875 23.34545898 36.28149414 C22.30333252 36.27625732 21.26120605 36.27102051 20.1875 36.265625 C19.06279297 36.26240234 17.93808594 36.25917969 16.77929688 36.25585938 C15.59529297 36.24748047 14.41128906 36.23910156 13.19140625 36.23046875 C12.00353516 36.22595703 10.81566406 36.22144531 9.59179688 36.21679688 C6.64581213 36.20496561 3.69985309 36.18702951 0.75390625 36.16796875 C1.08390625 42.43796875 1.41390625 48.70796875 1.75390625 55.16796875 C10.00390625 55.49796875 18.25390625 55.82796875 26.75390625 56.16796875 C27.24890625 59.13796875 27.24890625 59.13796875 27.75390625 62.16796875 C25.28483657 64.63703843 23.89116856 64.40443993 20.52159119 64.42021179 C19.45902855 64.40943352 19.45902855 64.40943352 18.375 64.3984375 C17.64773209 64.39797928 16.92046417 64.39752106 16.17115784 64.39704895 C14.63370126 64.39402711 13.09624773 64.3861428 11.55883789 64.3737793 C9.1973189 64.35551448 6.83619164 64.35326965 4.47460938 64.35351562 C2.98306951 64.34860078 1.49153231 64.34277261 0 64.3359375 C-0.71039932 64.33482468 -1.42079865 64.33371185 -2.15272522 64.33256531 C-7.1300401 64.2840224 -7.1300401 64.2840224 -8.24609375 63.16796875 C-8.37359892 61.73921494 -8.43435455 60.30441523 -8.46728516 58.87036133 C-8.50204453 57.49676201 -8.50204453 57.49676201 -8.5375061 56.09541321 C-8.55735565 55.09455185 -8.5772052 54.09369049 -8.59765625 53.0625 C-8.62080902 52.03170822 -8.64396179 51.00091644 -8.66781616 49.93888855 C-8.71558754 47.74389805 -8.76080492 45.54885076 -8.80371094 43.35375977 C-8.86991191 40.03963379 -8.94804761 36.7259445 -9.02734375 33.41210938 C-9.53733209 10.13107576 -9.53733209 10.13107576 -8.24609375 1.16796875 C-6.30565633 -0.77246867 -2.6473564 0.00414702 0 0 Z " fill="#050505" transform="translate(297.24609375,78.83203125)"/>
<path d="M0 0 C0.73541016 0.00202423 1.47082031 0.00404846 2.22851562 0.00613403 C2.97939453 0.00517731 3.73027344 0.00422058 4.50390625 0.00323486 C6.09440189 0.00255315 7.6849003 0.00440682 9.27539062 0.00857544 C11.71816217 0.01392386 14.16074984 0.00863019 16.60351562 0.00222778 C18.1451827 0.00288857 19.68684966 0.00416973 21.22851562 0.00613403 C21.96392578 0.0041098 22.69933594 0.00208557 23.45703125 0 C28.61356402 0.02399493 28.61356402 0.02399493 29.72851562 1.13894653 C29.85351562 4.13894653 29.85351562 4.13894653 29.72851562 7.13894653 C28.72851562 8.13894653 28.72851562 8.13894653 26.00585938 8.23660278 C24.35263672 8.21920044 24.35263672 8.21920044 22.66601562 8.20144653 C21.56128906 8.1924231 20.4565625 8.18339966 19.31835938 8.17410278 C18.46371094 8.16250122 17.6090625 8.15089966 16.72851562 8.13894653 C16.74011719 9.09285278 16.75171875 10.04675903 16.76367188 11.02957153 C16.84865224 21.95150958 16.63914032 32.86378444 16.35519409 43.78140259 C16.31230854 45.4402964 16.27107673 47.09923376 16.23147583 48.75820923 C16.17437468 51.11705917 16.11065197 53.47563565 16.04492188 55.83425903 C16.02820435 56.55636566 16.01148682 57.27847229 15.9942627 58.02246094 C15.84312794 63.02433421 15.84312794 63.02433421 14.72851562 64.13894653 C11.72851562 64.26394653 11.72851562 64.26394653 8.72851562 64.13894653 C7.07952835 62.48995926 7.57015015 60.55553211 7.5390625 58.28372192 C7.52234497 57.24917374 7.50562744 56.21462555 7.48840332 55.14872742 C7.47482788 54.02272629 7.46125244 52.89672516 7.44726562 51.73660278 C7.4288562 50.58856674 7.41044678 49.4405307 7.39147949 48.25770569 C7.33251239 44.57233989 7.27979271 40.88692689 7.22851562 37.20144653 C7.16104341 32.35889616 7.08735162 27.51650046 7.00976562 22.67410278 C6.99619019 21.55012589 6.98261475 20.42614899 6.96862793 19.26811218 C6.94355164 17.71156166 6.94355164 17.71156166 6.91796875 16.12356567 C6.90544067 15.20724869 6.8929126 14.2909317 6.88000488 13.34684753 C6.86795942 11.09705094 6.86795942 11.09705094 5.72851562 9.13894653 C3.17500449 8.7084239 3.17500449 8.7084239 0.22851562 8.57644653 C-5.17519827 8.23523264 -5.17519827 8.23523264 -6.27148438 7.13894653 C-6.39648438 4.13894653 -6.39648438 4.13894653 -6.27148438 1.13894653 C-4.53855458 -0.59398326 -2.30934102 0.01074607 0 0 Z " fill="#0E0E0E" transform="translate(408.271484375,78.86105346679688)"/>
<path d="M0 0 C2.31 0 4.62 0 7 0 C8.33427444 2.66854888 8.1344715 4.71496222 8.14526367 7.703125 C8.15164352 8.89776367 8.15802338 10.09240234 8.16459656 11.32324219 C8.16570938 12.61907227 8.1668222 13.91490234 8.16796875 15.25 C8.1711808 16.58756547 8.17454483 17.92513059 8.17805481 19.26269531 C8.18404582 22.06706558 8.18589469 24.87140503 8.18530273 27.67578125 C8.185201 31.2740273 8.19886508 34.87207653 8.21607494 38.47027588 C8.22717695 41.23259392 8.22922252 43.99486407 8.22869301 46.75720215 C8.23045129 48.7304022 8.2413016 50.70358731 8.25224304 52.67675781 C8.24916641 53.87139648 8.24608978 55.06603516 8.24291992 56.296875 C8.24434494 57.35229492 8.24576996 58.40771484 8.24723816 59.49511719 C8 62 8 62 6 64 C2.9375 64.1875 2.9375 64.1875 0 64 C-1.76516444 62.23483556 -1.1276249 59.71061723 -1.12939453 57.31860352 C-1.13254669 56.10386856 -1.13569885 54.88913361 -1.13894653 53.6375885 C-1.13715655 52.30136072 -1.13510555 50.96513326 -1.1328125 49.62890625 C-1.13348567 48.26749148 -1.1344558 46.90607683 -1.13571167 45.54466248 C-1.13718854 42.68723408 -1.13503476 39.82983689 -1.13037109 36.97241211 C-1.12467919 33.30581199 -1.12794943 29.63928514 -1.13394356 25.97268772 C-1.13755406 23.15975897 -1.13640823 20.34684765 -1.13381577 17.53391838 C-1.13314757 16.18189421 -1.13397118 14.82986848 -1.13629532 13.47784615 C-1.1388292 11.58882807 -1.13428371 9.69980447 -1.12939453 7.81079102 C-1.12859894 6.73459 -1.12780334 5.65838898 -1.12698364 4.54957581 C-1 2 -1 2 0 0 Z " fill="#161616" transform="translate(563,79)"/>
<path d="M0 0 C1.9375 0.3125 1.9375 0.3125 4 1 C6.42954257 8.2886277 5.47211936 15.7616785 2.30078125 22.66015625 C-4.21943136 34.38870686 -17.48658758 41.1277714 -30 45 C-33.31624101 45.79480156 -36.63393486 46.45570011 -40 47 C-40.33 47.99 -40.66 48.98 -41 50 C-40.67 48.35 -40.34 46.7 -40 45 C-39.36191406 44.87882812 -38.72382813 44.75765625 -38.06640625 44.6328125 C-36.82697266 44.38144531 -36.82697266 44.38144531 -35.5625 44.125 C-34.32693359 43.88136719 -34.32693359 43.88136719 -33.06640625 43.6328125 C-32.38449219 43.42398438 -31.70257813 43.21515625 -31 43 C-30.67 42.34 -30.34 41.68 -30 41 C-32.64 41 -35.28 41 -38 41 C-34.49928005 39.05321559 -30.89665258 38.05998538 -27.0625 36.9375 C-16.94392958 33.74445155 -7.39487962 28.46197289 -2 19 C-0.13385543 14.57524212 0.22260018 10.90740869 0.125 6.125 C0.10695312 4.97257812 0.08890625 3.82015625 0.0703125 2.6328125 C0.04710937 1.76398438 0.02390625 0.89515625 0 0 Z " fill="#212122" transform="translate(183,108)"/>
<path d="M0 0 C0.66 0.66 1.32 1.32 2 2 C-0.97 1.67 -3.94 1.34 -7 1 C-7 1.66 -7 2.32 -7 3 C-4.69 3.66 -2.38 4.32 0 5 C-3.81784049 6.2726135 -5.79707091 5.50882059 -9.6875 4.5625 C-18.71407208 2.54217894 -27.83780264 1.62823163 -36.27734375 6.24609375 C-37.65993614 7.12865273 -39.02669794 8.03684341 -40.37109375 8.9765625 C-42 10 -42 10 -44 10 C-44.433125 11.1446875 -44.433125 11.1446875 -44.875 12.3125 C-46 15 -46 15 -48 18 C-48.99 18 -49.98 18 -51 18 C-51.32994765 12.99000543 -50.03343487 10.81972181 -46.96875 6.99609375 C-34.58623467 -5.55840096 -15.77789066 -5.2754297 0 0 Z " fill="#333334" transform="translate(81,53)"/>
<path d="M0 0 C0.99 0 1.98 0 3 0 C3.66 0.99 4.32 1.98 5 3 C4.27683594 4.35931641 4.27683594 4.35931641 3.5390625 5.74609375 C-1.81840106 15.99987568 -6.37581754 25.77057934 -2.75 37.5 C-1.26484345 41.64280512 0.69213858 45.25967287 3 49 C-0.38405002 48.71799583 -1.72125596 48.28694239 -4.125 45.8125 C-9.62501745 37.56247382 -11.19923693 29.32970027 -9.33984375 19.515625 C-7.44625596 12.98389707 -4.94887317 4.94887317 0 0 Z " fill="#2D2D2E" transform="translate(35,119)"/>
<path d="M0 0 C9.32765484 6.11704901 15.71599571 15.68130066 18.0703125 26.5 C19.18649191 32.23510604 19.22608777 37.80078907 19.125 43.625 C19.11597656 44.62917969 19.10695312 45.63335937 19.09765625 46.66796875 C19.07437746 49.11224126 19.04168487 51.55598408 19 54 C19.76272217 54.1021582 20.52544434 54.20431641 21.3112793 54.30957031 C27.54423839 55.18568224 33.33676256 56.4971031 38 61 C38 61.99 38 62.98 38 64 C37.360625 63.401875 36.72125 62.80375 36.0625 62.1875 C30.24900021 58.03500015 24.00030795 56.9112323 17 56 C16.98018066 55.25951416 16.96036133 54.51902832 16.93994141 53.75610352 C16.84390394 50.35791589 16.73454684 46.9602779 16.625 43.5625 C16.5940625 42.39783203 16.563125 41.23316406 16.53125 40.03320312 C16.47247148 27.63207151 16.47247148 27.63207151 11 17 C11 18.65 11 20.3 11 22 C9.37532534 19.56298801 8.07853201 17.22006585 6.75 14.625 C2.33599876 6.73097459 -3.7660138 3.9128133 -12 1 C-12 0.34 -12 -0.32 -12 -1 C-7.60948071 -2.46350643 -4.27996912 -1.62583243 0 0 Z " fill="#343434" transform="translate(135,34)"/>
<path d="M0 0 C1.08946678 -0.0049926 1.08946678 -0.0049926 2.20094299 -0.01008606 C3.74015671 -0.015158 5.27938145 -0.0174943 6.81860352 -0.01733398 C9.17808096 -0.01951891 11.53708986 -0.0376669 13.89648438 -0.05664062 C15.38932131 -0.05957477 16.88216048 -0.06155942 18.375 -0.0625 C19.43756264 -0.07327827 19.43756264 -0.07327827 20.52159119 -0.08427429 C25.52508288 -0.06085462 25.52508288 -0.06085462 27.75390625 2.16796875 C27.94140625 4.73046875 27.94140625 4.73046875 27.75390625 7.16796875 C24.63134669 10.29052831 15.27488337 9.16406839 11.1015625 9.1953125 C8.8253919 9.17770676 6.54926631 9.1486636 4.2734375 9.10546875 C1.81529742 8.87679288 1.81529742 8.87679288 0.75390625 10.16796875 C0.66758751 11.51064288 0.64684152 12.85771197 0.65625 14.203125 C0.65874756 14.93152588 0.66124512 15.65992676 0.66381836 16.41040039 C0.67292236 17.34102295 0.68202637 18.27164551 0.69140625 19.23046875 C0.71203125 22.17984375 0.73265625 25.12921875 0.75390625 28.16796875 C9.00390625 28.16796875 17.25390625 28.16796875 25.75390625 28.16796875 C25.75390625 28.49796875 25.75390625 28.82796875 25.75390625 29.16796875 C16.84390625 29.16796875 7.93390625 29.16796875 -1.24609375 29.16796875 C-1.24609375 21.90796875 -1.24609375 14.64796875 -1.24609375 7.16796875 C7.66390625 7.16796875 16.57390625 7.16796875 25.75390625 7.16796875 C25.75390625 5.51796875 25.75390625 3.86796875 25.75390625 2.16796875 C14.86390625 2.16796875 3.97390625 2.16796875 -7.24609375 2.16796875 C-7.24609375 22.29796875 -7.24609375 42.42796875 -7.24609375 63.16796875 C-7.57609375 63.16796875 -7.90609375 63.16796875 -8.24609375 63.16796875 C-8.41625711 56.58858983 -8.57575297 50.00901058 -8.72827148 43.42919922 C-8.78122648 41.19671953 -8.83651109 38.96429372 -8.89428711 36.73193359 C-9.57443006 10.31872999 -9.57443006 10.31872999 -8.24609375 1.16796875 C-6.30565633 -0.77246867 -2.6473564 0.00414702 0 0 Z " fill="#383838" transform="translate(297.24609375,78.83203125)"/>
<path d="M0 0 C1.4540625 0.0309375 1.4540625 0.0309375 2.9375 0.0625 C5.26767865 6.52082038 5.22742662 12.63621971 5.203125 19.453125 C5.20503845 20.63469177 5.2069519 21.81625854 5.20892334 23.03363037 C5.21028022 25.52144586 5.20661862 28.00926855 5.19824219 30.49707031 C5.18749772 34.31331133 5.1981742 38.12908568 5.2109375 41.9453125 C5.20961657 44.36458437 5.20705554 46.78385596 5.203125 49.203125 C5.20717346 50.34686584 5.21122192 51.49060669 5.21539307 52.66900635 C5.20908875 53.72730652 5.20278442 54.78560669 5.19628906 55.87597656 C5.19390228 57.27326996 5.19390228 57.27326996 5.19146729 58.6987915 C4.9375 61.0625 4.9375 61.0625 2.9375 64.0625 C-0.0625 64.4375 -0.0625 64.4375 -3.0625 64.0625 C-3.7225 63.0725 -4.3825 62.0825 -5.0625 61.0625 C-2.4225 61.3925 0.2175 61.7225 2.9375 62.0625 C2.9375 42.2625 2.9375 22.4625 2.9375 2.0625 C0.9575 2.0625 -1.0225 2.0625 -3.0625 2.0625 C-3.0625 18.2325 -3.0625 34.4025 -3.0625 51.0625 C-4.0525 50.0725 -5.0425 49.0825 -6.0625 48.0625 C-6.0625 47.4025 -6.0625 46.7425 -6.0625 46.0625 C-5.4025 46.0625 -4.7425 46.0625 -4.0625 46.0625 C-4.09802979 45.1967334 -4.13355957 44.3309668 -4.17016602 43.43896484 C-4.30117812 40.1551322 -4.42513416 36.87117695 -4.54467773 33.58691406 C-4.59729315 32.17893206 -4.65253362 30.77104513 -4.71069336 29.36328125 C-5.09968808 19.89210536 -5.27321174 10.493401 -4.0625 1.0625 C-3.0625 0.0625 -3.0625 0.0625 0 0 Z " fill="#3D3D3D" transform="translate(263.0625,78.9375)"/>
<path d="M0 0 C0.969375 0.86625 1.93875 1.7325 2.9375 2.625 C12.18280028 10.52280712 19.62575307 14.36481959 31.875 14.125 C32.75414062 14.11597656 33.63328125 14.10695312 34.5390625 14.09765625 C36.6928271 14.07424577 38.84645014 14.0383801 41 14 C39.296875 17.84375 39.296875 17.84375 36.625 19.25 C27.43016344 21.15237998 19.27740127 20.56779669 11 16 C8.2091635 14.13641211 5.57157713 12.1549529 3 10 C3.99 9.67 4.98 9.34 6 9 C5.566875 8.51789063 5.13375 8.03578125 4.6875 7.5390625 C4.130625 6.90742188 3.57375 6.27578125 3 5.625 C2.443125 4.99851563 1.88625 4.37203125 1.3125 3.7265625 C0 2 0 2 0 0 Z " fill="#2F2F2F" transform="translate(91,179)"/>
<path d="M0 0 C5.66732687 5.4833974 6.36854543 10.37269354 7 18 C6.67 18 6.34 18 6 18 C5.96261719 19.19496094 5.92523438 20.38992187 5.88671875 21.62109375 C5.27907348 37.30130573 5.27907348 37.30130573 2 45 C1.67 45 1.34 45 1 45 C1.0721875 44.22398438 1.144375 43.44796875 1.21875 42.6484375 C2.46427635 28.15189471 1.82695639 14.38728158 0 0 Z " fill="#212122" transform="translate(145,49)"/>
<path d="M0 0 C8.91 0 17.82 0 27 0 C27 0.33 27 0.66 27 1 C18.75 1 10.5 1 2 1 C2.33 7.27 2.66 13.54 3 20 C11.25 20.33 19.5 20.66 28 21 C28.33 22.98 28.66 24.96 29 27 C28.34 27.33 27.68 27.66 27 28 C27 26.02 27 24.04 27 22 C18.09 22 9.18 22 0 22 C0 14.74 0 7.48 0 0 Z " fill="#414141" transform="translate(296,114)"/>
<path d="M0 0 C2.2346515 2.77890304 3.72822594 5.38541016 5.04296875 8.6953125 C5.39423828 9.57574219 5.74550781 10.45617187 6.10742188 11.36328125 C6.64206055 12.73033203 6.64206055 12.73033203 7.1875 14.125 C7.55552734 15.04410156 7.92355469 15.96320313 8.30273438 16.91015625 C11 23.72588126 11 23.72588126 11 26 C3.74 26 -3.52 26 -11 26 C-8.99389364 19.98168092 -6.94115188 14.2629682 -4.375 8.5 C-4.06304687 7.78585938 -3.75109375 7.07171875 -3.4296875 6.3359375 C-1.13632015 1.13632015 -1.13632015 1.13632015 0 0 Z M0 4 C-1.1560727 6.2034806 -2.29984721 8.41203156 -3.4375 10.625 C-3.76298828 11.24246094 -4.08847656 11.85992187 -4.42382812 12.49609375 C-6.37650469 16.32092414 -7.64547753 19.70705515 -8 24 C-6.06658053 25.93341947 -2.62520879 25.17449133 -0.0625 25.1875 C1.83822266 25.20876953 1.83822266 25.20876953 3.77734375 25.23046875 C7.08943999 25.34713697 7.08943999 25.34713697 9 23 C8.07000343 20.58020309 7.13138275 18.16437621 6.1875 15.75 C5.92646484 15.06808594 5.66542969 14.38617188 5.39648438 13.68359375 C3.9700812 10.05595111 2.57090129 6.99552463 0 4 Z " fill="#3F3F40" transform="translate(515,89)"/>
<path d="M0 0 C1.9375 0.3125 1.9375 0.3125 4 1 C6.5505598 8.65167941 5.15916307 15.84848375 2.0703125 23.1015625 C1 25 1 25 -1 26 C-0.34 23.36 0.32 20.72 1 18 C0.34 18.33 -0.32 18.66 -1 19 C-0.83628906 18.15179688 -0.67257813 17.30359375 -0.50390625 16.4296875 C0.00948445 12.9354469 0.09850739 9.65372426 0.0625 6.125 C0.05347656 4.97257812 0.04445312 3.82015625 0.03515625 2.6328125 C0.02355469 1.76398438 0.01195312 0.89515625 0 0 Z " fill="#2C2C2D" transform="translate(183,108)"/>
<path d="M0 0 C0.87914063 0.00902344 1.75828125 0.01804687 2.6640625 0.02734375 C4.8178271 0.05075423 6.97145014 0.0866199 9.125 0.125 C9.125 0.455 9.125 0.785 9.125 1.125 C7.9184375 1.15078125 6.711875 1.1765625 5.46875 1.203125 C3.85413262 1.25944886 2.23955067 1.3167952 0.625 1.375 C-0.16648437 1.38917969 -0.95796875 1.40335937 -1.7734375 1.41796875 C-10.49876622 1.77556419 -15.90949424 4.80858214 -21.875 11.125 C-22.535 11.125 -23.195 11.125 -23.875 11.125 C-23.56485608 13.20868538 -23.2517948 15.29193668 -22.9375 17.375 C-22.76347656 18.53515625 -22.58945312 19.6953125 -22.41015625 20.890625 C-22.0022264 23.35606961 -21.53598697 25.71924562 -20.875 28.125 C-25.05824625 24.34658403 -25.67011381 22.29679364 -26.1875 16.8125 C-25.80927855 12.34948694 -24.6707223 9.59376655 -21.875 6.125 C-14.95415749 0.55823537 -8.55109316 -0.16741598 0 0 Z " fill="#3A3A3B" transform="translate(58.875,69.875)"/>
<path d="M0 0 C5.2704318 5.2704318 5.35332086 13.55395196 5.4375 20.625 C5.41003667 28.7816093 5.06981713 41.93018287 -1 48 C-0.51513161 44.20186428 0.09224235 40.5539748 1.0234375 36.83984375 C2.10641019 32.01780172 2.29822836 27.42733062 2.25 22.5 C2.25773438 21.70980469 2.26546875 20.91960937 2.2734375 20.10546875 C2.25737798 15.19928644 1.66711803 10.77443154 0.42871094 6.02539062 C0 4 0 4 0 0 Z " fill="#323233" transform="translate(129,55)"/>
<path d="M0 0 C4.62 0 9.24 0 14 0 C14 18.48 14 36.96 14 56 C13.67 56 13.34 56 13 56 C12.98969254 55.35298126 12.97938507 54.70596252 12.96876526 54.03933716 C12.8608425 47.32380778 12.7462332 40.60841646 12.62768555 33.89306641 C12.58429097 31.38463216 12.5426193 28.87616751 12.50268555 26.36767578 C12.44509243 22.76846132 12.38136657 19.16940058 12.31640625 15.5703125 C12.29969376 14.44319855 12.28298126 13.31608459 12.26576233 12.15481567 C12.24581711 11.11388763 12.22587189 10.07295959 12.20532227 9.00048828 C12.18200584 7.62148849 12.18200584 7.62148849 12.15821838 6.21463013 C12.1389322 3.95924846 12.1389322 3.95924846 11 2 C8.41394668 1.5316735 8.41394668 1.5316735 5.4375 1.375 C3.91962891 1.26285156 3.91962891 1.26285156 2.37109375 1.1484375 C1.19740234 1.07496094 1.19740234 1.07496094 0 1 C0 0.67 0 0.34 0 0 Z " fill="#383838" transform="translate(403,86)"/>
<path d="M0 0 C1.16202329 3.62014948 0.99965705 6.91039134 0.875 10.6875 C0.81062769 16.84792964 1.6545984 21.33194613 4 27 C4.66 26.34 5.32 25.68 6 25 C7.65 27.97 9.3 30.94 11 34 C6 33 6 33 3.875 30.8125 C-1.39847929 22.90228106 -2.98641737 14.78655149 -1.609375 5.3125 C-1.0625 3.125 -1.0625 3.125 0 0 Z " fill="#404041" transform="translate(27,134)"/>
<path d="M0 0 C1.18529297 0.02707031 1.18529297 0.02707031 2.39453125 0.0546875 C2.98621094 0.07789063 3.57789063 0.10109375 4.1875 0.125 C4.1875 0.455 4.1875 0.785 4.1875 1.125 C3.57003906 1.16496094 2.95257813 1.20492187 2.31640625 1.24609375 C-4.90692684 2.13664167 -8.23095015 4.82731678 -13 10.2265625 C-13.598125 10.85304688 -14.19625 11.47953125 -14.8125 12.125 C-15.4725 12.125 -16.1325 12.125 -16.8125 12.125 C-17.4725 14.435 -18.1325 16.745 -18.8125 19.125 C-23.36987263 18.68679109 -26.38903445 18.27458831 -29.8125 15.125 C-26.09361761 15.63212033 -23.07795761 16.24108215 -19.8125 18.125 C-19.6475 17.155625 -19.4825 16.18625 -19.3125 15.1875 C-17.78961706 9.81906373 -13.92066429 5.75943003 -9.8125 2.125 C-6.42887982 0.40096495 -3.77585722 -0.11271216 0 0 Z " fill="#323232" transform="translate(112.8125,39.875)"/>
<path d="M0 0 C-0.33 1.32 -0.66 2.64 -1 4 C-8.42686315 4.10331031 -15.63512596 3.99862699 -23 3 C-23 2.34 -23 1.68 -23 1 C-15.30881404 0.24833087 -7.72772107 -0.13690844 0 0 Z " fill="#4B4B4C" transform="translate(600,93)"/>
<path d="M0 0 C-0.98914891 2.56963685 -1.6237554 3.77859453 -4.03125 5.1953125 C-9.95345473 7.42550985 -15.75064342 8.98946575 -22 10 C-22.33 10.99 -22.66 11.98 -23 13 C-22.67 11.35 -22.34 9.7 -22 8 C-21.06027344 7.85304687 -21.06027344 7.85304687 -20.1015625 7.703125 C-19.28429687 7.55359375 -18.46703125 7.4040625 -17.625 7.25 C-16.81289062 7.11078125 -16.00078125 6.9715625 -15.1640625 6.828125 C-12.36453795 5.7568268 -12.27548115 4.61624283 -11 2 C-8.90625 0.91796875 -8.90625 0.91796875 -6.5 0.1875 C-5.7059375 -0.06644531 -4.911875 -0.32039062 -4.09375 -0.58203125 C-2 -1 -2 -1 0 0 Z " fill="#1B1B1C" transform="translate(165,145)"/>
<path d="M0 0 C4.74555104 0.45630298 9.14409082 1.2576166 13.75 2.5 C19.07708416 3.89793546 24.20774678 4.48991617 29.69921875 4.7890625 C32 5 32 5 33 6 C33.14115161 8.67058851 33.04247107 11.32432238 33 14 C32.34 14.33 31.68 14.66 31 15 C31.33 12.36 31.66 9.72 32 7 C31.44650879 6.94465088 30.89301758 6.88930176 30.32275391 6.83227539 C27.75683594 6.57568359 25.19091797 6.3190918 22.625 6.0625 C21.75488281 5.97548828 20.88476562 5.88847656 19.98828125 5.79882812 C18.22248508 5.62224851 16.45717667 5.44072514 14.69238281 5.25439453 C12.85646016 5.08092415 11.01634768 4.9481483 9.17480469 4.85107422 C8.27922852 4.79580566 7.38365234 4.74053711 6.4609375 4.68359375 C5.65188965 4.6467749 4.8428418 4.60995605 4.00927734 4.57202148 C2 4 2 4 0.72119141 1.95727539 C0.48319824 1.31137451 0.24520508 0.66547363 0 0 Z " fill="#303030" transform="translate(96,150)"/>
<path d="M0 0 C0.33 0.66 0.66 1.32 1 2 C0.19555664 3.93945312 0.19555664 3.93945312 -1.08984375 6.28125 C-1.54423828 7.12300781 -1.99863281 7.96476562 -2.46679688 8.83203125 C-3.19479492 10.15267578 -3.19479492 10.15267578 -3.9375 11.5 C-4.88771946 13.23761685 -5.83451275 14.97711311 -6.77734375 16.71875 C-7.20265381 17.49154297 -7.62796387 18.26433594 -8.06616211 19.06054688 C-9.14460862 20.94157159 -9.14460862 20.94157159 -9 23 C-7.2507786 23.08142927 -5.50045458 23.13938541 -3.75 23.1875 C-2.77546875 23.22230469 -1.8009375 23.25710937 -0.796875 23.29296875 C2.37468742 22.96075202 3.67040307 22.11327721 6 20 C4.125 23.875 4.125 23.875 3 25 C0.30345146 25.07319621 -2.36691458 25.09242537 -5.0625 25.0625 C-5.82111328 25.05798828 -6.57972656 25.05347656 -7.36132812 25.04882812 C-9.24091871 25.0370068 -11.12046899 25.01907078 -13 25 C-12.32534946 20.94202734 -10.24369197 17.67668238 -8.1875 14.1875 C-7.84396484 13.59646484 -7.50042969 13.00542969 -7.14648438 12.39648438 C-6.45405852 11.20520011 -5.75989185 10.01492594 -5.06396484 8.82568359 C-3.35609094 5.89510051 -1.67919936 2.94708922 0 0 Z " fill="#3C3C3D" transform="translate(126,106)"/>
<path d="M0 0 C0 0.66 0 1.32 0 2 C-1.57587891 1.98259766 -1.57587891 1.98259766 -3.18359375 1.96484375 C-10.53926481 1.90880054 -17.70059996 1.95722857 -25 3 C-18.36765055 -4.29558439 -8.6300955 -3.0684784 0 0 Z " fill="#0F0F0F" transform="translate(70,53)"/>
<path d="M0 0 C0.12117188 1.29035156 0.24234375 2.58070312 0.3671875 3.91015625 C0.53612008 5.62763747 0.70540987 7.34508358 0.875 9.0625 C0.95363281 9.91005859 1.03226562 10.75761719 1.11328125 11.63085938 C1.61605078 16.63921734 2.56206957 21.15896754 4 26 C4.21794764 28.71562756 4.0958736 31.26760245 4 34 C-1.67216475 25.49175287 -1.56086973 12.96371435 -2 3 C-3.32 2.67 -4.64 2.34 -6 2 C-3 0 -3 0 0 0 Z " fill="#3C3C3D" transform="translate(85,109)"/>
<path d="M0 0 C4 4 4 4 4 6 C3.34 6 2.68 6 2 6 C1.67 20.85 1.34 35.7 1 51 C0.67 51 0.34 51 0 51 C0 34.17 0 17.34 0 0 Z " fill="#474748" transform="translate(224,90)"/>
<path d="M0 0 C6.50414434 2.91761398 12.95904959 9.51069913 16 16 C16.10865873 21.86757137 13.52551827 26.8197509 11 32 C10.01 31.67 9.02 31.34 8 31 C9 29 9 29 10.5 27.4375 C12.7924252 23.71230905 13.58122189 20.3626655 13 16 C11.11039401 12.58044113 8.64451365 9.85711181 6 7 C4.8504902 5.64895277 3.70428742 4.29507978 2.5625 2.9375 C1.716875 1.968125 0.87125 0.99875 0 0 Z " fill="#353536" transform="translate(110,77)"/>
<path d="M0 0 C0.66 0.33 1.32 0.66 2 1 C-2.57070785 6.24439495 -7.07350591 11.36141179 -12.4921875 15.74609375 C-14.09452132 17.07860452 -15.54680601 18.50764809 -17 20 C-15.55146412 15.38172678 -12.89198185 12.32252558 -9.625 8.875 C-8.90183594 8.08802734 -8.90183594 8.08802734 -8.1640625 7.28515625 C-5.62109942 4.55561708 -3.0773311 2.1147536 0 0 Z " fill="#2C2C2D" transform="translate(68,112)"/>
<path d="M0 0 C0.33 0 0.66 0 1 0 C1.33 7.26 1.66 14.52 2 22 C1.01 21.34 0.02 20.68 -1 20 C-2.14113142 14.19060368 -2.64729423 7.90244566 -2 2 C-1.34 1.34 -0.68 0.68 0 0 Z " fill="#030303" transform="translate(69,119)"/>
<path d="M0 0 C9.3341474 -0.37784405 18.07140604 0.01467257 27 3 C27.66 3.66 28.32 4.32 29 5 C26.03 4.67 23.06 4.34 20 4 C20 4.66 20 5.32 20 6 C18.68 5.67 17.36 5.34 16 5 C16 4.34 16 3.68 16 3 C10.72 2.34 5.44 1.68 0 1 C0 0.67 0 0.34 0 0 Z " fill="#2D2D2E" transform="translate(54,50)"/>
<path d="M0 0 C1.32 0.33 2.64 0.66 4 1 C3.01 1.495 3.01 1.495 2 2 C2 7.28 2 12.56 2 18 C8.17455452 20.74241945 8.17455452 20.74241945 14.3125 21.75 C15.15425781 21.82734375 15.99601562 21.9046875 16.86328125 21.984375 C19.05413629 22.16199105 19.05413629 22.16199105 21 21 C20.67 21.99 20.34 22.98 20 24 C12.28542349 24.59090373 7.03040301 23.21389852 0 20 C0 13.4 0 6.8 0 0 Z " fill="#404040" transform="translate(89,105)"/>
<path d="M0 0 C0.66 0 1.32 0 2 0 C2.06058594 0.88300781 2.12117188 1.76601562 2.18359375 2.67578125 C2.70378061 10.1264577 3.28687258 17.56526736 4 25 C3.34 25 2.68 25 2 25 C-0.38858824 16.63994116 -0.190218 8.61264844 0 0 Z " fill="#2F2F2F" transform="translate(70,117)"/>
<path d="M0 0 C0.33 0 0.66 0 1 0 C1.72646983 9.9889602 -2.87988963 16.98643397 -7.6328125 25.51953125 C-8.81092495 27.65696384 -9.92715891 29.80833892 -11 32 C-11.66 32 -12.32 32 -13 32 C-11.49054566 27.99471522 -9.61420909 24.28731513 -7.625 20.5 C-4.20998067 13.86200616 -1.93187708 7.22354039 0 0 Z " fill="#363637" transform="translate(145,94)"/>
<path d="M0 0 C0.99 0.495 0.99 0.495 2 1 C2.40961596 3.32115711 2.73128549 5.65834501 3 8 C3.3274322 10.00097458 3.65876419 12.00133314 4 14 C4.74765625 14.19335938 5.4953125 14.38671875 6.265625 14.5859375 C7.25046875 14.84632813 8.2353125 15.10671875 9.25 15.375 C10.22453125 15.63023437 11.1990625 15.88546875 12.203125 16.1484375 C14.65837303 16.89598509 16.75617405 17.77123817 19 19 C12.81629761 18.63918034 7.37233645 18.2457866 2 15 C-0.58255567 10.28402878 -0.20964902 5.24122545 0 0 Z " fill="#333334" transform="translate(91,130)"/>
<path d="M0 0 C0.66 0 1.32 0 2 0 C3.33333333 10.66666667 4.66666667 21.33333333 6 32 C5.34 31.67 4.68 31.34 4 31 C3.4375 28.76953125 3.4375 28.76953125 3 25.8125 C2.75636719 24.20568359 2.75636719 24.20568359 2.5078125 22.56640625 C2.34023437 21.38949219 2.17265625 20.21257812 2 19 C1.81179687 17.70964844 1.62359375 16.41929687 1.4296875 15.08984375 C0.94401568 11.72776349 0.46785839 8.36459864 0 5 C-0.99 5 -1.98 5 -3 5 C-1.125 1.125 -1.125 1.125 0 0 Z " fill="#393939" transform="translate(65,121)"/>
<path d="M0 0 C0 3.24196762 -0.39287405 3.98628176 -2.08203125 6.6171875 C-2.51966797 7.30683594 -2.95730469 7.99648437 -3.40820312 8.70703125 C-3.87162109 9.42246094 -4.33503906 10.13789062 -4.8125 10.875 C-5.71515717 12.28886245 -6.61750806 13.70292049 -7.51953125 15.1171875 C-7.9470166 15.78331055 -8.37450195 16.44943359 -8.81494141 17.13574219 C-10.25331052 19.39849179 -11.63724962 21.69102095 -13 24 C-14.32 23.67 -15.64 23.34 -17 23 C-16.67 21.68 -16.34 20.36 -16 19 C-15.34 19.66 -14.68 20.32 -14 21 C-13.32453125 19.90300781 -12.6490625 18.80601563 -11.953125 17.67578125 C-11.05225333 16.22124887 -10.15120216 14.76682764 -9.25 13.3125 C-8.8065625 12.59126953 -8.363125 11.87003906 -7.90625 11.12695312 C-5.47611656 7.21372354 -2.97928327 3.52919771 0 0 Z " fill="#39393A" transform="translate(380,80)"/>
<path d="M0 0 C3 4 3 4 6 14 C-1.26 14 -8.52 14 -16 14 C-16 13.34 -16 12.68 -16 12 C-15.01 11.67 -14.02 11.34 -13 11 C-12.67 11.33 -12.34 11.66 -12 12 C-9.64686445 12.07271741 -7.29166332 12.08370868 -4.9375 12.0625 C-3.64714844 12.05347656 -2.35679687 12.04445313 -1.02734375 12.03515625 C-0.02832031 12.02355469 0.97070312 12.01195313 2 12 C2 8.14154023 1.41561245 6.45055534 0 3 C0 2.01 0 1.02 0 0 Z " fill="#4C4C4D" transform="translate(520,101)"/>
<path d="M0 0 C0.33 0.66 0.66 1.32 1 2 C-0.43359375 4.8203125 -0.43359375 4.8203125 -2.4375 8.125 C-3.09621094 9.22070312 -3.75492188 10.31640625 -4.43359375 11.4453125 C-4.95050781 12.28835937 -5.46742188 13.13140625 -6 14 C-0.555 13.505 -0.555 13.505 5 13 C4.67 13.66 4.34 14.32 4 15 C-0.82425944 16.47180796 -4.92477148 17.25376143 -10 17 C-6.84985504 11.20909522 -3.55506117 5.55194659 0 0 Z " fill="#3B3B3C" transform="translate(144,114)"/>
<path d="M0 0 C1.43070098 4.29210294 0.96758266 8.37979361 0.83984375 12.87109375 C0.99708302 15.94301219 1.52870605 17.38239671 3 20 C2.625 22.25 2.625 22.25 2 24 C-0.72909848 18.77911594 -2.14267301 14.88130151 -2.1875 9 C-2.20167969 8.154375 -2.21585938 7.30875 -2.23046875 6.4375 C-1.98543096 3.84591384 -1.30584901 2.22975008 0 0 Z " fill="#0C0C0C" transform="translate(29,138)"/>
<path d="M0 0 C3.43752007 1.5277867 6.18953688 3.50181056 9 6 C9 6.66 9 7.32 9 8 C-1.37357631 12.40774487 -1.37357631 12.40774487 -7 13 C-3.58983503 10.13546142 -0.09305456 8.65296434 4 7 C2.79618552 4.50638429 1.54571278 2.31856917 0 0 Z " fill="#373737" transform="translate(94,89)"/>
<path d="M0 0 C0.66 0.33 1.32 0.66 2 1 C0.9275 1.680625 -0.145 2.36125 -1.25 3.0625 C-5.18570254 5.84064297 -6.89671228 8.70929306 -9 13 C-8.34 12.67 -7.68 12.34 -7 12 C-7.66 13.65 -8.32 15.3 -9 17 C-9.99 17 -10.98 17 -12 17 C-12.37372654 11.88350571 -10.82359498 9.76203986 -7.734375 5.87109375 C-5.38011796 3.33125338 -2.9993789 1.7139308 0 0 Z " fill="#474748" transform="translate(42,54)"/>
<path d="M0 0 C0.99 0 1.98 0 3 0 C3.66 0.99 4.32 1.98 5 3 C3.515 5.475 3.515 5.475 2 8 C1.01 7.67 0.02 7.34 -1 7 C-1.99 7.33 -2.98 7.66 -4 8 C-2.25 2.25 -2.25 2.25 0 0 Z " fill="#222222" transform="translate(35,119)"/>
<path d="M0 0 C0.33 0 0.66 0 1 0 C1.19620767 2.06168985 1.38160753 4.12440998 1.5625 6.1875 C1.66691406 7.33605469 1.77132812 8.48460938 1.87890625 9.66796875 C1.98859985 12.68631199 1.74002389 15.08923936 1 18 C-1 16 -1 16 -1.23046875 13.06640625 C-1.21628906 11.91011719 -1.20210937 10.75382812 -1.1875 9.5625 C-1.18105469 8.40878906 -1.17460938 7.25507812 -1.16796875 6.06640625 C-1 3 -1 3 0 0 Z " fill="#474749" transform="translate(552,109)"/>
<path d="M0 0 C6.21556431 0.8020083 12.76868433 3.28356534 17 8 C13.02698665 8 10.25357249 6.28783907 6.8125 4.5 C6.15830078 4.16613281 5.50410156 3.83226562 4.83007812 3.48828125 C3.2172936 2.66423076 1.60827441 1.83281845 0 1 C0 0.67 0 0.34 0 0 Z " fill="#373737" transform="translate(81,59)"/>
<path d="M0 0 C0.66 0 1.32 0 2 0 C2.474375 0.495 2.94875 0.99 3.4375 1.5 C4.99969942 3.34626591 4.99969942 3.34626591 8 3 C7.67 4.32 7.34 5.64 7 7 C6.67 7 6.34 7 6 7 C6 8.65 6 10.3 6 12 C4.28982274 9.4347341 3.09582189 7.12039035 1.875 4.3125 C1.52179688 3.50425781 1.16859375 2.69601563 0.8046875 1.86328125 C0.53914062 1.24839844 0.27359375 0.63351563 0 0 Z " fill="#2E2E2F" transform="translate(140,44)"/>
<path d="M0 0 C0.98120464 3.05263664 0.98120464 4.94736336 0 8 C1.98 8 3.96 8 6 8 C5.67 8.66 5.34 9.32 5 10 C2.69 10 0.38 10 -2 10 C-1.125 2.25 -1.125 2.25 0 0 Z " fill="#313131" transform="translate(487,133)"/>
<path d="M0 0 C0.33 1.32 0.66 2.64 1 4 C0.01 4.33 -0.98 4.66 -2 5 C-2.268125 5.598125 -2.53625 6.19625 -2.8125 6.8125 C-4.50798425 9.93576046 -7.01439213 11.18267347 -10 13 C-10.66 12.67 -11.32 12.34 -12 12 C-11.46890625 11.63648438 -10.9378125 11.27296875 -10.390625 10.8984375 C-5.84855246 7.66594062 -2.76940714 4.8464625 0 0 Z " fill="#383839" transform="translate(181,127)"/>
<path d="M0 0 C1.98 0.495 1.98 0.495 4 1 C3.7159949 3.06356895 3.42246648 5.1258285 3.125 7.1875 C2.96257812 8.33605469 2.80015625 9.48460938 2.6328125 10.66796875 C2.05939755 13.68724625 1.25240957 16.20575848 0 19 C-1.125 15.25 -1.125 15.25 0 13 C0.07092842 10.7927077 0.08415025 8.58332548 0.0625 6.375 C0.05347656 5.18648438 0.04445312 3.99796875 0.03515625 2.7734375 C0.02355469 1.85820313 0.01195312 0.94296875 0 0 Z " fill="#4B4B4C" transform="translate(183,108)"/>
<path d="M0 0 C1.0828125 1.11375 1.0828125 1.11375 2.1875 2.25 C4.68799795 4.69493133 7.25154408 6.84580482 10 9 C10.66 9.66 11.32 10.32 12 11 C7.34921955 10.71813452 4.79882021 8.52396815 1.35546875 5.66796875 C0 4 0 4 0 0 Z " fill="#373738" transform="translate(102,159)"/>
<path d="M0 0 C1.5625 1.75 1.5625 1.75 3 4 C2.6875 6.25 2.6875 6.25 2 8 C-0.31 8 -2.62 8 -5 8 C-5.33 7.34 -5.66 6.68 -6 6 C-3.69 6 -1.38 6 1 6 C0.67 4.02 0.34 2.04 0 0 Z " fill="#343434" transform="translate(543,135)"/>
<path d="M0 0 C3.34944548 5.02416822 3.09834146 9.09951257 3 15 C0.48760618 11.23140928 -0.12663199 8.73760751 -0.0625 4.3125 C-0.05347656 3.50425781 -0.04445313 2.69601563 -0.03515625 1.86328125 C-0.02355469 1.24839844 -0.01195313 0.63351563 0 0 Z " fill="#2A2A2A" transform="translate(86,128)"/>
<path d="M0 0 C1.32 0.33 2.64 0.66 4 1 C0.04 4.465 0.04 4.465 -4 8 C-4.33 6.68 -4.66 5.36 -5 4 C-2.75 1.9375 -2.75 1.9375 0 0 Z " fill="#252525" transform="translate(41,73)"/>
<path d="M0 0 C2.40072955 2.88087546 4.47291037 5.56404834 6 9 C4.68 9 3.36 9 2 9 C0.4375 6.1875 0.4375 6.1875 -1 3 C-0.67 2.01 -0.34 1.02 0 0 Z " fill="#323233" transform="translate(32,159)"/>
<path d="M0 0 C0.99 0.99 1.98 1.98 3 3 C2.67 3.99 2.34 4.98 2 6 C-4.75 6.125 -4.75 6.125 -7 5 C-6.67 4.34 -6.34 3.68 -6 3 C-3.69 3.33 -1.38 3.66 1 4 C0.67 2.68 0.34 1.36 0 0 Z " fill="#323232" transform="translate(388,137)"/>
<path d="M0 0 C1.39195915 4.17587745 -0.17676781 6.13474776 -2 10 C-3.125 8.3125 -3.125 8.3125 -4 6 C-3.25 3.3125 -3.25 3.3125 -2 1 C-1.34 0.67 -0.68 0.34 0 0 Z " fill="#070707" transform="translate(34,125)"/>
<path d="M0 0 C2.97 0.495 2.97 0.495 6 1 C3.47043472 4.0916909 0.77545388 4.90931332 -3 6 C-2.01 4.02 -1.02 2.04 0 0 Z " fill="#1C1C1C" transform="translate(166,142)"/>
<path d="M0 0 C0.33 0.66 0.66 1.32 1 2 C0.67 2.99 0.34 3.98 0 5 C0.95093297 6.69514137 1.95107762 8.36368108 3 10 C3 10.66 3 11.32 3 12 C2.34 12 1.68 12 1 12 C-2.06476484 6.72860447 -2.06476484 6.72860447 -1.75 3.1875 C-1 1 -1 1 0 0 Z " fill="#343435" transform="translate(372,106)"/>
<path d="M0 0 C2.64 0.33 5.28 0.66 8 1 C8.33 2.32 8.66 3.64 9 5 C5.22454612 3.90931332 2.52956528 3.0916909 0 0 Z " fill="#242424" transform="translate(126,34)"/>
<path d="M0 0 C4.455 0.99 4.455 0.99 9 2 C9 2.66 9 3.32 9 4 C6.36 3.67 3.72 3.34 1 3 C0.67 2.01 0.34 1.02 0 0 Z " fill="#101010" transform="translate(103,192)"/>
<path d="M0 0 C-1 1.5625 -1 1.5625 -3 3 C-5.76614782 2.96726452 -8.26030547 2.49404328 -11 2 C-11 1.67 -11 1.34 -11 1 C-9.5437328 0.63743142 -8.08488815 0.28520207 -6.625 -0.0625 C-5.40683594 -0.35833984 -5.40683594 -0.35833984 -4.1640625 -0.66015625 C-2 -1 -2 -1 0 0 Z " fill="#323233" transform="translate(125,169)"/>
</svg>
